<svg width="42" height="42" viewBox="0 0 42 42" fill="none" xmlns="http://www.w3.org/2000/svg">
<g id="Icon">
<ellipse id="Ellipse 9" cx="30.5" cy="33.5039" rx="11.5" ry="8.5" fill="#46AF3F"/>
<path id="Vector" d="M20 36.0039C23.5466 36.0037 26.9928 34.8256 29.7974 32.6546C32.6019 30.4836 34.6061 27.4427 35.4951 24.0092M20 36.0039C16.4533 36.0037 13.0072 34.8256 10.2026 32.6546C7.39806 30.4836 5.39392 27.4427 4.50489 24.0092M20 36.0039C24.4178 36.0039 28 28.8395 28 20.0039C28 11.1684 24.4178 4.00391 20 4.00391M20 36.0039C15.5822 36.0039 12 28.8395 12 20.0039C12 11.1684 15.5822 4.00391 20 4.00391M35.4951 24.0092C35.824 22.7292 36 21.387 36 20.0039C36.0044 17.2521 35.2957 14.5461 33.9431 12.1497M35.4951 24.0092C30.7541 26.6375 25.4208 28.0124 20 28.0039C14.3787 28.0039 9.09689 26.555 4.50489 24.0092M4.50489 24.0092C4.16845 22.7007 3.9988 21.355 4.00001 20.0039C4.00001 17.1506 4.74667 14.4697 6.05689 12.1497M20 4.00391C22.8378 4.00272 25.6247 4.75654 28.075 6.18802C30.5252 7.6195 32.5506 9.67709 33.9431 12.1497M20 4.00391C17.1622 4.00272 14.3752 4.75654 11.925 6.18802C9.47474 7.6195 7.44944 9.67709 6.05689 12.1497M33.9431 12.1497C30.0723 15.5024 25.1209 17.3446 20 17.3372C14.6702 17.3372 9.79556 15.3817 6.05689 12.1497" stroke="#475569" stroke-width="2" stroke-linecap="round" stroke-linejoin="round"/>
</g>
</svg>
