<svg width="436" height="243" viewBox="0 0 436 243" fill="none" xmlns="http://www.w3.org/2000/svg">
<g opacity="0.66" filter="url(#filter0_f_1366_8702)">
<path d="M60.2076 66.5683C61.313 65.4749 62.0748 64.0808 62.3995 62.5571C62.7242 61.0334 62.5976 59.4465 62.0352 57.9909C61.4729 56.5354 60.4993 55.2746 59.2339 54.3632C57.9685 53.4518 56.4663 52.9294 54.9117 52.8602C54.7944 52.8551 54.681 52.8165 54.5847 52.7491C54.4884 52.6816 54.4132 52.588 54.3681 52.4793C54.3233 52.3704 54.3104 52.251 54.331 52.1352C54.3516 52.0193 54.4048 51.9119 54.4843 51.8256C55.5212 50.6727 56.2017 49.2425 56.4436 47.7078C56.6855 46.1731 56.4784 44.5997 55.8474 43.1775C55.2163 41.7553 54.1884 40.5453 52.8877 39.6937C51.587 38.842 50.0693 38.3852 48.5178 38.3785H48.4882C46.4974 38.3781 44.5814 39.1263 43.119 40.4751C43.0329 40.5553 42.9257 40.6091 42.81 40.6301C42.6942 40.6511 42.5748 40.6385 42.4657 40.5937C42.3571 40.5487 42.2635 40.4737 42.1957 40.3775C42.1278 40.2812 42.0886 40.1678 42.0826 40.0503C41.9853 37.9834 41.0958 36.0312 39.5994 34.6007C38.103 33.1702 36.1152 32.3717 34.0504 32.3717C31.9856 32.3717 30.0032 33.1702 28.5162 34.6007C27.0293 36.0312 26.1526 37.9834 26.0689 40.0503C26.0642 40.1678 26.0261 40.2813 25.9591 40.3776C25.8921 40.4739 25.7989 40.5489 25.6906 40.5937C25.5819 40.6385 25.4625 40.6511 25.3466 40.6301C25.2307 40.6091 25.1231 40.5553 25.0366 40.4751C23.5646 39.1241 21.6416 38.3749 19.6487 38.3761H19.6238C18.0742 38.387 16.5621 38.8463 15.2696 39.6988C13.9771 40.5513 12.9592 41.7607 12.3383 43.1814C11.7175 44.6022 11.5202 46.1737 11.7702 47.7071C12.0202 49.2404 12.7067 50.6702 13.7473 51.8244C13.8274 51.9107 13.8813 52.0181 13.9027 52.134C13.9241 52.2498 13.912 52.3692 13.8679 52.4782C13.8235 52.5868 13.749 52.6804 13.6531 52.7479C13.5572 52.8154 13.444 52.8539 13.3268 52.859C11.277 52.968 9.34965 53.8607 7.94183 55.3533C6.53401 56.846 5.75302 58.8247 5.75981 60.8818C5.7666 62.939 6.56065 64.9177 7.97833 66.4103C9.396 67.9029 11.3293 68.7957 13.3798 68.9046C13.4972 68.9104 13.6106 68.9495 13.7069 69.0173C13.8032 69.0852 13.8783 69.179 13.9234 69.2879C13.9683 69.397 13.9812 69.5166 13.9606 69.6327C13.94 69.7487 13.8868 69.8563 13.8072 69.9429C12.7669 71.0923 12.0837 72.5212 11.8407 74.0554C11.5977 75.5896 11.8055 77.163 12.4387 78.584C13.0718 80.0049 14.1031 81.212 15.4069 82.0584C16.7107 82.9047 18.2307 83.3538 19.7818 83.3508H19.8114C21.7934 83.3563 23.7041 82.6224 25.1713 81.2921C25.2572 81.2122 25.3643 81.1585 25.4798 81.1375C25.5953 81.1165 25.7145 81.129 25.8234 81.1735C25.932 81.2184 26.0256 81.2934 26.0933 81.3896C26.161 81.4859 26.1998 81.5995 26.2053 81.7169C26.3208 83.7712 27.2182 85.7053 28.7125 87.1209C30.2068 88.5365 32.1842 89.3256 34.2373 89.3256C36.2903 89.3256 38.2625 88.5365 39.7475 87.1209C41.2324 85.7053 42.117 83.7712 42.219 81.7169C42.2242 81.5994 42.2627 81.486 42.3299 81.3898C42.3971 81.2936 42.4902 81.2185 42.5985 81.1735C42.7071 81.129 42.8262 81.1165 42.9419 81.1375C43.0575 81.1585 43.1649 81.2122 43.2514 81.2921C44.7252 82.6246 46.6395 83.3614 48.6213 83.3591H48.6509C50.2035 83.3652 51.7226 82.9181 53.0228 82.0723C54.323 81.2265 55.3479 80.0187 55.9723 78.5965C56.5966 77.1743 56.7934 75.5994 56.5385 74.064C56.2836 72.5287 55.5881 71.0995 54.5371 69.9512C54.4569 69.8646 54.4029 69.757 54.3815 69.641C54.3602 69.525 54.3723 69.4053 54.4165 69.2962C54.4611 69.1876 54.5356 69.094 54.6314 69.0263C54.7272 68.9587 54.8403 68.9198 54.9576 68.9141C56.9403 68.8157 58.8125 67.9792 60.2076 66.5683ZM34.1765 70.376C32.3028 70.376 30.4694 69.8192 28.908 68.7762C27.3467 67.7332 26.1276 66.2507 25.4048 64.5162C24.6821 62.7817 24.4882 60.8731 24.8476 59.0318C25.2071 57.1904 26.1038 55.499 27.4243 54.1715C28.7448 52.844 30.4298 51.9399 32.2662 51.5737C34.1027 51.2074 14.8547 54.6961 16.5881 55.4145C18.5195 67.8169 19.769 60.9961 20.8151 62.5571C21.8612 64.1181 19.743 62.6388 19.7492 64.5162C19.7547 67.0328 24.8419 72.6646 23.0717 74.4441C21.3016 76.2237 36.6881 70.3731 34.1765 70.376Z" fill="url(#paint0_linear_1366_8702)" fill-opacity="0.5"/>
<path d="M427.123 191.134C428.228 190.041 428.99 188.646 429.315 187.123C429.639 185.599 429.513 184.012 428.95 182.557C428.388 181.101 427.414 179.84 426.149 178.929C424.884 178.017 423.381 177.495 421.827 177.426C421.709 177.421 421.596 177.382 421.5 177.315C421.403 177.247 421.328 177.154 421.283 177.045C421.238 176.936 421.225 176.817 421.246 176.701C421.267 176.585 421.32 176.478 421.399 176.391C422.436 175.238 423.117 173.808 423.359 172.273C423.601 170.739 423.393 169.165 422.762 167.743C422.131 166.321 421.103 165.111 419.803 164.259C418.502 163.408 416.984 162.951 415.433 162.944H415.403C413.412 162.944 411.496 163.692 410.034 165.041C409.948 165.121 409.841 165.175 409.725 165.196C409.609 165.217 409.49 165.204 409.381 165.159C409.272 165.114 409.179 165.039 409.111 164.943C409.043 164.847 409.004 164.733 408.998 164.616C408.9 162.549 408.011 160.597 406.514 159.166C405.018 157.736 403.03 156.937 400.965 156.937C398.901 156.937 396.918 157.736 395.431 159.166C393.944 160.597 393.068 162.549 392.984 164.616C392.979 164.733 392.941 164.847 392.874 164.943C392.807 165.04 392.714 165.115 392.606 165.159C392.497 165.204 392.378 165.217 392.262 165.196C392.146 165.175 392.038 165.121 391.952 165.041C390.48 163.69 388.557 162.941 386.564 162.942H386.539C384.989 162.953 383.477 163.412 382.185 164.264C380.892 165.117 379.874 166.326 379.253 167.747C378.633 169.168 378.435 170.739 378.685 172.273C378.935 173.806 379.622 175.236 380.662 176.39C380.742 176.476 380.796 176.584 380.818 176.7C380.839 176.815 380.827 176.935 380.783 177.044C380.739 177.152 380.664 177.246 380.568 177.314C380.472 177.381 380.359 177.42 380.242 177.425C378.192 177.534 376.265 178.426 374.857 179.919C373.449 181.412 372.668 183.39 372.675 185.448C372.682 187.505 373.476 189.483 374.893 190.976C376.311 192.469 378.244 193.361 380.295 193.47C380.412 193.476 380.526 193.515 380.622 193.583C380.718 193.651 380.793 193.745 380.838 193.854C380.883 193.963 380.896 194.082 380.876 194.198C380.855 194.314 380.802 194.422 380.722 194.509C379.682 195.658 378.999 197.087 378.756 198.621C378.513 200.155 378.721 201.729 379.354 203.15C379.987 204.571 381.018 205.778 382.322 206.624C383.626 207.47 385.146 207.919 386.697 207.916H386.726C388.708 207.922 390.619 207.188 392.086 205.858C392.172 205.778 392.279 205.724 392.395 205.703C392.51 205.682 392.63 205.695 392.738 205.739C392.847 205.784 392.941 205.859 393.008 205.955C393.076 206.052 393.115 206.165 393.12 206.283C393.236 208.337 394.133 210.271 395.628 211.687C397.122 213.102 399.099 213.891 401.152 213.891C403.205 213.891 405.178 213.102 406.663 211.687C408.147 210.271 409.032 208.337 409.134 206.283C409.139 206.165 409.178 206.052 409.245 205.955C409.312 205.859 409.405 205.784 409.514 205.739C409.622 205.695 409.741 205.682 409.857 205.703C409.973 205.724 410.08 205.778 410.166 205.858C411.64 207.19 413.555 207.927 415.536 207.925H415.566C417.118 207.931 418.638 207.484 419.938 206.638C421.238 205.792 422.263 204.584 422.887 203.162C423.512 201.74 423.708 200.165 423.454 198.63C423.199 197.094 422.503 195.665 421.452 194.517C421.372 194.43 421.318 194.323 421.297 194.207C421.275 194.091 421.287 193.971 421.332 193.862C421.376 193.753 421.451 193.66 421.546 193.592C421.642 193.524 421.755 193.485 421.873 193.48C423.855 193.381 425.728 192.545 427.123 191.134ZM401.092 194.942C399.218 194.942 397.384 194.385 395.823 193.342C394.262 192.299 393.043 190.816 392.32 189.082C391.597 187.347 391.403 185.439 391.763 183.597C392.122 181.756 393.019 180.065 394.339 178.737C395.66 177.41 397.345 176.506 399.181 176.139C401.018 175.773 381.77 179.262 383.503 179.98C385.435 192.383 386.684 185.562 387.73 187.123C388.776 188.684 386.658 187.204 386.664 189.082C386.67 191.599 391.757 197.23 389.987 199.01C388.217 200.789 403.603 194.939 401.092 194.942Z" fill="url(#paint1_linear_1366_8702)" fill-opacity="0.5"/>
<path d="M321.835 144.839C326.307 140.415 329.389 134.775 330.703 128.61C332.016 122.446 331.504 116.025 329.229 110.137C326.954 104.248 323.015 99.1467 317.895 95.4593C312.776 91.772 306.698 89.6587 300.409 89.3787C299.934 89.358 299.475 89.202 299.086 88.929C298.696 88.656 298.392 88.2774 298.209 87.8377C298.028 87.3969 297.976 86.9138 298.059 86.4452C298.143 85.9766 298.358 85.5421 298.68 85.1927C302.875 80.5284 305.628 74.7422 306.606 68.5332C307.585 62.3242 306.747 55.9582 304.194 50.2043C301.641 44.4504 297.482 39.555 292.22 36.1095C286.958 32.664 280.817 30.8159 274.54 30.7886H274.421C266.366 30.7872 258.614 33.8142 252.698 39.2711C252.35 39.5955 251.916 39.8131 251.448 39.8982C250.979 39.9833 250.496 39.9322 250.055 39.7511C249.616 39.5688 249.237 39.2653 248.962 38.8761C248.688 38.4868 248.529 38.0278 248.505 37.5525C248.111 29.1902 244.512 21.292 238.458 15.5044C232.404 9.71679 224.362 6.48628 216.008 6.48628C207.655 6.48628 199.634 9.71679 193.618 15.5044C187.602 21.292 184.055 29.1902 183.717 37.5525C183.698 38.0277 183.544 38.4871 183.272 38.8766C183.001 39.2661 182.624 39.5695 182.186 39.7511C181.746 39.9322 181.263 39.9833 180.794 39.8982C180.326 39.8131 179.89 39.5955 179.54 39.2711C173.585 33.8051 165.805 30.774 157.742 30.779H157.641C151.372 30.8229 145.254 32.6812 140.025 36.1303C134.796 39.5794 130.677 44.4722 128.166 50.2203C125.654 55.9683 124.856 62.3266 125.867 68.5302C126.878 74.7337 129.656 80.5183 133.866 85.1879C134.19 85.5373 134.408 85.9718 134.495 86.4404C134.581 86.909 134.532 87.3921 134.354 87.8329C134.174 88.2726 133.873 88.6512 133.485 88.9242C133.097 89.1972 132.639 89.3532 132.165 89.3739C123.872 89.8146 116.074 93.4265 110.378 99.4654C104.683 105.504 101.523 113.51 101.55 121.832C101.578 130.155 104.79 138.161 110.526 144.2C116.262 150.238 124.083 153.85 132.379 154.291C132.854 154.314 133.313 154.472 133.703 154.747C134.092 155.022 134.396 155.401 134.579 155.842C134.76 156.283 134.812 156.767 134.729 157.237C134.646 157.706 134.43 158.141 134.108 158.492C129.9 163.142 127.135 168.923 126.152 175.13C125.169 181.337 126.01 187.703 128.572 193.452C131.133 199.2 135.306 204.084 140.58 207.508C145.855 210.933 152.005 212.749 158.28 212.737H158.4C166.419 212.759 174.149 209.79 180.085 204.408C180.433 204.085 180.866 203.868 181.333 203.783C181.801 203.698 182.283 203.748 182.723 203.928C183.163 204.11 183.542 204.413 183.815 204.803C184.089 205.192 184.246 205.652 184.269 206.127C184.736 214.438 188.366 222.263 194.412 227.99C200.458 233.717 208.458 236.91 216.764 236.91C225.07 236.91 233.049 233.717 239.057 227.99C245.065 222.263 248.644 214.438 249.057 206.127C249.078 205.652 249.233 205.193 249.505 204.803C249.777 204.414 250.154 204.111 250.592 203.928C251.031 203.748 251.513 203.698 251.981 203.783C252.449 203.868 252.884 204.085 253.233 204.408C259.196 209.799 266.941 212.78 274.959 212.771H275.079C281.36 212.796 287.506 210.987 292.767 207.565C298.027 204.143 302.174 199.256 304.699 193.502C307.225 187.749 308.021 181.376 306.99 175.165C305.959 168.953 303.145 163.171 298.893 158.525C298.568 158.175 298.35 157.74 298.264 157.27C298.177 156.801 298.226 156.317 298.405 155.875C298.586 155.436 298.887 155.057 299.275 154.783C299.662 154.51 300.12 154.352 300.594 154.329C308.616 153.931 316.19 150.547 321.835 144.839ZM216.518 160.244C208.938 160.244 201.52 157.991 195.203 153.771C188.886 149.552 183.954 143.554 181.03 136.536C178.106 129.519 177.321 121.797 178.776 114.347C180.23 106.898 183.858 100.055 189.2 94.6839C194.543 89.313 201.36 85.6554 208.79 84.1736C216.22 82.6918 138.347 96.8062 145.36 99.713C153.173 149.89 158.229 122.295 162.461 128.61C166.693 134.926 158.124 128.941 158.149 136.536C158.171 146.718 178.752 169.503 171.591 176.703C164.429 183.902 226.68 160.232 216.518 160.244Z" fill="url(#paint2_linear_1366_8702)" fill-opacity="0.5"/>
</g>
<defs>
<filter id="filter0_f_1366_8702" x="0.0199142" y="0.746477" width="435.21" height="241.903" filterUnits="userSpaceOnUse" color-interpolation-filters="sRGB">
<feFlood flood-opacity="0" result="BackgroundImageFix"/>
<feBlend mode="normal" in="SourceGraphic" in2="BackgroundImageFix" result="shape"/>
<feGaussianBlur stdDeviation="2.86993" result="effect1_foregroundBlur_1366_8702"/>
</filter>
<linearGradient id="paint0_linear_1366_8702" x1="102.174" y1="67.1687" x2="10.7174" y2="79.0315" gradientUnits="userSpaceOnUse">
<stop offset="1" stop-color="#049140"/>
</linearGradient>
<linearGradient id="paint1_linear_1366_8702" x1="469.089" y1="191.734" x2="377.632" y2="203.597" gradientUnits="userSpaceOnUse">
<stop offset="1" stop-color="#049140"/>
</linearGradient>
<linearGradient id="paint2_linear_1366_8702" x1="477.68" y1="87.0981" x2="119.792" y2="48.7968" gradientUnits="userSpaceOnUse">
<stop offset="0.626209" stop-color="#46AF3F"/>
</linearGradient>
</defs>
</svg>
