<svg width="462" height="400" viewBox="0 0 462 400" fill="none" xmlns="http://www.w3.org/2000/svg">
<g filter="url(#filter0_f_3037_207)">
<path d="M315.815 162.373C378.076 176.452 410.637 239.556 320.907 275.601C311.328 348.383 229.263 366.063 205.453 279.593C159.328 272.083 93.9151 211.61 202.008 163.024C204.466 107.493 287.486 62.6019 315.815 162.373Z" fill="url(#paint0_linear_3037_207)" fill-opacity="0.5"/>
<path d="M388.97 315.8C405.146 317.067 415.642 331.752 394.387 344.097C394.636 362.755 374.638 370.201 365.49 349.318C353.612 349.114 334.948 336.291 360.365 320.121C358.955 306.062 378.199 291.737 388.97 315.8Z" fill="url(#paint1_linear_3037_207)" fill-opacity="0.5"/>
<path d="M127.802 29.9382C143.579 26.1488 158.096 36.8751 141.691 55.18C147.689 72.8499 130.967 86.106 115.818 69.0689C104.458 72.5418 82.7473 66.1083 101.929 42.8803C96.2467 29.9437 110.128 10.3766 127.802 29.9382Z" fill="url(#paint2_linear_3037_207)" fill-opacity="0.5"/>
</g>
<defs>
<filter id="filter0_f_3037_207" x="89.3068" y="16.6608" width="322.014" height="350.247" filterUnits="userSpaceOnUse" color-interpolation-filters="sRGB">
<feFlood flood-opacity="0" result="BackgroundImageFix"/>
<feBlend mode="normal" in="SourceGraphic" in2="BackgroundImageFix" result="shape"/>
<feGaussianBlur stdDeviation="2.5" result="effect1_foregroundBlur_3037_207"/>
</filter>
<linearGradient id="paint0_linear_3037_207" x1="316.2" y1="135.874" x2="204.329" y2="304.067" gradientUnits="userSpaceOnUse">
<stop offset="1" stop-color="#FF6600"/>
</linearGradient>
<linearGradient id="paint1_linear_3037_207" x1="384.954" y1="308.101" x2="369.24" y2="356.535" gradientUnits="userSpaceOnUse">
<stop offset="1" stop-color="#F16000"/>
</linearGradient>
<linearGradient id="paint2_linear_3037_207" x1="121.606" y1="23.8552" x2="121.614" y2="74.7751" gradientUnits="userSpaceOnUse">
<stop offset="1" stop-color="#F16000"/>
</linearGradient>
</defs>
</svg>
