<svg width="42" height="42" viewBox="0 0 42 42" fill="none" xmlns="http://www.w3.org/2000/svg">
<g id="Icon">
<ellipse id="Ellipse 9" cx="30.5" cy="33.5039" rx="11.5" ry="8.5" fill="#46AF3F"/>
<path id="Vector" d="M4.5 11.1339C4.5 24.2594 15.5211 34.9005 29.1154 34.9005H32.8077C33.787 34.9005 34.7261 34.5249 35.4185 33.8563C36.111 33.1877 36.5 32.281 36.5 31.3355V29.1616C36.5 28.3441 35.924 27.6311 35.1018 27.433L27.8436 25.6806C27.1215 25.5063 26.3634 25.7678 25.9187 26.3413L24.3269 28.39C23.8641 28.9858 23.0649 29.2488 22.3412 28.9921C19.6547 28.0385 17.2149 26.5324 15.1909 24.5782C13.1669 22.624 11.6071 20.2684 10.6194 17.6744C10.3535 16.9757 10.6259 16.2041 11.243 15.7573L13.3648 14.2204C13.9605 13.791 14.2296 13.0574 14.0491 12.3618L12.2342 5.35385C12.1343 4.96835 11.9038 4.62612 11.5795 4.38154C11.2551 4.13695 10.8554 4.00404 10.4438 4.00391H8.19231C7.21305 4.00391 6.27389 4.3795 5.58145 5.04807C4.88901 5.71663 4.5 6.6234 4.5 7.56889V11.1339Z" stroke="#475569" stroke-width="2" stroke-linecap="round" stroke-linejoin="round"/>
</g>
</svg>
