<svg width="42" height="42" viewBox="0 0 42 42" fill="none" xmlns="http://www.w3.org/2000/svg">
<g id="Icon">
<ellipse id="Ellipse 9" cx="30.5" cy="33.5039" rx="11.5" ry="8.5" fill="#46AF3F"/>
<path id="Vector" fill-rule="evenodd" clip-rule="evenodd" d="M4 7.48391C4 6.29574 4.48163 5.15623 5.33894 4.31607C6.19625 3.4759 7.35901 3.00391 8.57143 3.00391H31.4286C32.641 3.00391 33.8038 3.4759 34.6611 4.31607C35.5184 5.15623 36 6.29574 36 7.48391V25.4039C36 26.5921 35.5184 27.7316 34.6611 28.5717C33.8038 29.4119 32.641 29.8839 31.4286 29.8839H26.3543L26.6354 30.9793L28.4731 32.7802C28.7927 33.0935 29.0103 33.4926 29.0985 33.927C29.1866 34.3615 29.1414 34.8118 28.9684 35.2211C28.7954 35.6303 28.5026 35.9801 28.1268 36.2262C27.751 36.4724 27.3091 36.6038 26.8571 36.6039H13.1429C12.6909 36.6038 12.249 36.4724 11.8732 36.2262C11.4974 35.9801 11.2046 35.6303 11.0316 35.2211C10.8586 34.8118 10.8134 34.3615 10.9015 33.927C10.9897 33.4926 11.2073 33.0935 11.5269 32.7802L13.3646 30.9793L13.6457 29.8839H8.57143C7.35901 29.8839 6.19625 29.4119 5.33894 28.5717C4.48163 27.7316 4 26.5921 4 25.4039V7.48391ZM17.1909 23.1639H8.57143V7.48391H31.4286V23.1639H17.1909Z" fill="black"/>
</g>
</svg>
